<svg width="156" height="140" viewBox="0 0 156 140" fill="none" xmlns="http://www.w3.org/2000/svg">
<g id="Illustrations" clip-path="url(#clip0_476_1340)">
<path id="Vector" d="M38.8043 35.5133C36.1322 27.5259 27.8806 23.0867 22.4523 24.9026C17.0239 26.7186 13.1046 35.2294 15.7767 43.2168C18.25 50.6101 25.7445 54.8783 30.9001 54.1166C30.8629 54.1813 30.8384 54.2524 30.828 54.3263L30.6704 55.6411C30.6583 55.7414 30.6721 55.843 30.7105 55.9364C30.7488 56.0298 30.8103 56.1119 30.8893 56.1748C30.9682 56.2377 31.0619 56.2794 31.1615 56.2959C31.2611 56.3124 31.3633 56.3032 31.4583 56.2691L34.114 55.3169C34.2091 55.2828 34.2938 55.225 34.3602 55.149C34.4266 55.0729 34.4725 54.9812 34.4935 54.8824C34.5145 54.7837 34.5099 54.6812 34.4801 54.5847C34.4503 54.4883 34.3964 54.401 34.3234 54.3312L33.3661 53.4162C33.3321 53.385 33.2945 53.358 33.2541 53.3357C37.8525 50.8576 41.283 42.9227 38.8043 35.5133Z" fill="#F5E9FE"/>
<path id="Vector_2" d="M29.1309 29.6368C31.3499 30.782 33.0446 32.7354 33.865 35.0939C34.6855 37.4524 34.5691 40.0359 33.54 42.311C33.3102 42.8342 34.1553 43.1093 34.3835 42.5896C35.4641 40.1278 35.574 37.3486 34.6912 34.8092C33.8085 32.2698 31.9983 30.158 29.6237 28.8974C29.1225 28.6318 28.626 29.3692 29.1309 29.6368Z" fill="white"/>
<path id="Vector_3" d="M146.985 23.8705C144.313 15.8831 136.061 11.4438 130.633 13.2598C125.205 15.0758 121.285 23.5866 123.957 31.574C126.431 38.9673 133.925 43.2355 139.081 42.4738C139.044 42.5384 139.019 42.6096 139.009 42.6835L138.851 43.9983C138.839 44.0986 138.853 44.2002 138.891 44.2936C138.929 44.387 138.991 44.469 139.07 44.532C139.149 44.5949 139.243 44.6366 139.342 44.6531C139.442 44.6696 139.544 44.6604 139.639 44.6263L142.295 43.674C142.39 43.64 142.474 43.5822 142.541 43.5061C142.607 43.4301 142.653 43.3384 142.674 43.2396C142.695 43.1409 142.691 43.0384 142.661 42.9419C142.631 42.8455 142.577 42.7582 142.504 42.6884L141.547 41.7734C141.513 41.7422 141.475 41.7152 141.435 41.6929C146.033 39.2148 149.464 31.2799 146.985 23.8705Z" fill="#FEF9EA"/>
<path id="Vector_4" d="M137.313 17.9939C139.532 19.1392 141.226 21.0926 142.047 23.4511C142.867 25.8096 142.751 28.393 141.722 30.6682C141.492 31.1914 142.337 31.4665 142.565 30.9467C143.646 28.485 143.756 25.7057 142.873 23.1664C141.99 20.627 140.18 18.5152 137.805 17.2545C137.304 16.989 136.808 17.7264 137.313 17.9939Z" fill="white"/>
<path id="Vector_5" d="M84.1627 11.0148C81.4906 3.0274 73.239 -1.41187 67.8107 0.404091C62.3823 2.22005 58.463 10.7309 61.1351 18.7183C63.6084 26.1116 71.1029 30.3797 76.2585 29.6181C76.2213 29.6827 76.1968 29.7539 76.1864 29.8278L76.0287 31.1426C76.0167 31.2429 76.0305 31.3445 76.0688 31.4379C76.1072 31.5313 76.1687 31.6133 76.2477 31.6763C76.3266 31.7392 76.4203 31.7809 76.5199 31.7974C76.6195 31.8139 76.7216 31.8047 76.8167 31.7706L79.4724 30.8183C79.5675 30.7843 79.6522 30.7265 79.7186 30.6504C79.785 30.5744 79.8309 30.4827 79.8519 30.3839C79.8729 30.2852 79.8683 30.1827 79.8385 30.0862C79.8087 29.9897 79.7548 29.9025 79.6818 29.8327L78.7245 28.9177C78.6905 28.8865 78.6529 28.8595 78.6125 28.8372C83.2109 26.3591 86.6413 18.4242 84.1627 11.0148Z" fill="#FEF9EA"/>
<path id="Vector_6" d="M74.4893 5.13822C76.7083 6.28344 78.403 8.2369 79.2234 10.5954C80.0439 12.9539 79.9275 15.5373 78.8984 17.8125C78.6686 18.3356 79.5137 18.6107 79.742 18.091C80.8225 15.6293 80.9324 12.85 80.0497 10.3106C79.1669 7.77125 77.3567 5.65948 74.9821 4.39883C74.4809 4.13324 73.9844 4.87066 74.4893 5.13822Z" fill="white"/>
<path id="Vector_7" d="M70.7606 49.4487C71.1122 49.4487 71.3972 49.1637 71.3972 48.8121C71.3972 48.4605 71.1122 48.1755 70.7606 48.1755C70.409 48.1755 70.124 48.4605 70.124 48.8121C70.124 49.1637 70.409 49.4487 70.7606 49.4487Z" fill="#CCCCCC"/>
<path id="Vector_8" d="M69.404 74.9851C70.0986 74.9851 70.6616 74.4221 70.6616 73.7275C70.6616 73.033 70.0986 72.47 69.404 72.47C68.7095 72.47 68.1465 73.033 68.1465 73.7275C68.1465 74.4221 68.7095 74.9851 69.404 74.9851Z" fill="#CCCCCC"/>
<path id="Vector_9" d="M48.3507 70.1428C48.752 70.1428 49.0774 69.8175 49.0774 69.4161C49.0774 69.0148 48.752 68.6895 48.3507 68.6895C47.9494 68.6895 47.624 69.0148 47.624 69.4161C47.624 69.8175 47.9494 70.1428 48.3507 70.1428Z" fill="#CCCCCC"/>
<path id="Vector_10" d="M59.3905 58.2443C59.8251 58.2443 60.1774 57.892 60.1774 57.4574C60.1774 57.0227 59.8251 56.6704 59.3905 56.6704C58.9558 56.6704 58.6035 57.0227 58.6035 57.4574C58.6035 57.892 58.9558 58.2443 59.3905 58.2443Z" fill="#CCCCCC"/>
<path id="Vector_11" d="M98.1141 104.318C98.4657 104.318 98.7507 104.033 98.7507 103.681C98.7507 103.33 98.4657 103.045 98.1141 103.045C97.7625 103.045 97.4775 103.33 97.4775 103.681C97.4775 104.033 97.7625 104.318 98.1141 104.318Z" fill="#CCCCCC"/>
<path id="Vector_12" d="M77.2663 91.228C77.9609 91.228 78.5239 90.665 78.5239 89.9704C78.5239 89.2759 77.9609 88.7129 77.2663 88.7129C76.5718 88.7129 76.0088 89.2759 76.0088 89.9704C76.0088 90.665 76.5718 91.228 77.2663 91.228Z" fill="#CCCCCC"/>
<path id="Vector_13" d="M91.586 74.6738C91.9874 74.6738 92.3127 74.3484 92.3127 73.9471C92.3127 73.5458 91.9874 73.2205 91.586 73.2205C91.1847 73.2205 90.8594 73.5458 90.8594 73.9471C90.8594 74.3484 91.1847 74.6738 91.586 74.6738Z" fill="#CCCCCC"/>
<path id="Vector_14" d="M96.3651 90.2916C96.7997 90.2916 97.152 89.9393 97.152 89.5047C97.152 89.0701 96.7997 88.7178 96.3651 88.7178C95.9305 88.7178 95.5781 89.0701 95.5781 89.5047C95.5781 89.9393 95.9305 90.2916 96.3651 90.2916Z" fill="#CCCCCC"/>
<path id="Vector_15" d="M138.752 130.822C139.446 130.241 138.508 127.977 136.656 125.765C134.804 123.553 132.74 122.231 132.045 122.813C131.351 123.394 132.289 125.658 134.141 127.87C135.993 130.082 138.057 131.404 138.752 130.822Z" fill="#272B30"/>
<path id="Vector_16" d="M124.287 135.45C130.057 135.45 134.734 130.773 134.734 125.004C134.734 119.234 130.057 114.557 124.287 114.557C118.518 114.557 113.841 119.234 113.841 125.004C113.841 130.773 118.518 135.45 124.287 135.45Z" fill="#272B30"/>
<path id="Vector_17" d="M128.709 133.202H125.535V138.888H128.709V133.202Z" fill="#272B30"/>
<path id="Vector_18" d="M122.362 133.202H119.188V138.888H122.362V133.202Z" fill="#272B30"/>
<path id="Vector_19" d="M126.065 139.946C127.525 139.946 128.709 139.502 128.709 138.954C128.709 138.406 127.525 137.962 126.065 137.962C124.604 137.962 123.42 138.406 123.42 138.954C123.42 139.502 124.604 139.946 126.065 139.946Z" fill="#272B30"/>
<path id="Vector_20" d="M119.717 139.814C121.178 139.814 122.362 139.37 122.362 138.822C122.362 138.274 121.178 137.83 119.717 137.83C118.256 137.83 117.072 138.274 117.072 138.822C117.072 139.37 118.256 139.814 119.717 139.814Z" fill="#272B30"/>
<path id="Vector_21" d="M121.007 111.872C121.94 108.116 126.057 105.905 130.204 106.935C134.35 107.964 136.955 111.844 136.022 115.601C135.09 119.357 131.995 119.369 127.849 118.34C123.702 117.31 120.074 115.629 121.007 111.872Z" fill="#F5E9FE"/>
<path id="Vector_22" d="M117.241 122.395C117.629 121.576 115.831 119.911 113.224 118.675C110.618 117.439 108.19 117.1 107.802 117.918C107.414 118.736 109.213 120.402 111.819 121.638C114.425 122.874 116.853 123.213 117.241 122.395Z" fill="#272B30"/>
<path id="Vector_23" d="M122.726 126.282C124.649 126.282 126.209 124.723 126.209 122.799C126.209 120.876 124.649 119.316 122.726 119.316C120.802 119.316 119.243 120.876 119.243 122.799C119.243 124.723 120.802 126.282 122.726 126.282Z" fill="#FEF9EA"/>
<path id="Vector_24" d="M121.295 122.712C121.936 122.712 122.456 122.192 122.456 121.551C122.456 120.91 121.936 120.39 121.295 120.39C120.654 120.39 120.134 120.91 120.134 121.551C120.134 122.192 120.654 122.712 121.295 122.712Z" fill="#3F3D56"/>
<path id="Vector_25" d="M124.91 130.056C124.965 130.356 124.96 130.663 124.896 130.961C124.831 131.26 124.709 131.542 124.535 131.793C124.362 132.043 124.141 132.258 123.884 132.423C123.628 132.588 123.342 132.701 123.042 132.756C122.742 132.81 122.434 132.805 122.136 132.741C121.838 132.677 121.556 132.554 121.305 132.381C121.054 132.207 120.84 131.986 120.675 131.73C120.51 131.474 120.396 131.187 120.342 130.887L120.341 130.883C120.113 129.621 121.088 129.174 122.35 128.946C123.612 128.718 124.682 128.794 124.91 130.056Z" fill="#FEF9EA"/>
<path id="Vector_26" d="M38.4027 117.701C39.4327 115.006 39.5818 112.559 38.7359 112.236C37.89 111.913 36.3694 113.835 35.3394 116.53C34.3095 119.224 34.1604 121.671 35.0063 121.994C35.8522 122.317 37.3728 120.395 38.4027 117.701Z" fill="#272B30"/>
<path id="Vector_27" d="M27.2159 135.45C32.9853 135.45 37.6623 130.773 37.6623 125.004C37.6623 119.234 32.9853 114.557 27.2159 114.557C21.4465 114.557 16.7695 119.234 16.7695 125.004C16.7695 130.773 21.4465 135.45 27.2159 135.45Z" fill="#272B30"/>
<path id="Vector_28" d="M25.6287 133.202H22.4551V138.888H25.6287V133.202Z" fill="#272B30"/>
<path id="Vector_29" d="M31.9763 133.202H28.8027V138.888H31.9763V133.202Z" fill="#272B30"/>
<path id="Vector_30" d="M25.0997 139.946C26.5603 139.946 27.7444 139.502 27.7444 138.954C27.7444 138.406 26.5603 137.962 25.0997 137.962C23.6391 137.962 22.4551 138.406 22.4551 138.954C22.4551 139.502 23.6391 139.946 25.0997 139.946Z" fill="#272B30"/>
<path id="Vector_31" d="M31.4474 139.814C32.908 139.814 34.0921 139.37 34.0921 138.822C34.0921 138.274 32.908 137.83 31.4474 137.83C29.9868 137.83 28.8027 138.274 28.8027 138.822C28.8027 139.37 29.9868 139.814 31.4474 139.814Z" fill="#272B30"/>
<path id="Vector_32" d="M27.4804 125.929C29.4522 125.929 31.0507 124.331 31.0507 122.359C31.0507 120.387 29.4522 118.789 27.4804 118.789C25.5086 118.789 23.9102 120.387 23.9102 122.359C23.9102 124.331 25.5086 125.929 27.4804 125.929Z" fill="#FEF9EA"/>
<path id="Vector_33" d="M27.4801 123.549C28.1374 123.549 28.6702 123.016 28.6702 122.359C28.6702 121.702 28.1374 121.169 27.4801 121.169C26.8229 121.169 26.29 121.702 26.29 122.359C26.29 123.016 26.8229 123.549 27.4801 123.549Z" fill="#3F3D56"/>
<path id="Vector_34" d="M17.0822 115.289C16.2387 111.511 18.935 107.694 23.1046 106.763C27.2742 105.832 31.3381 108.14 32.1816 111.917C33.0251 115.695 30.2617 117.088 26.0921 118.019C21.9226 118.95 17.9257 119.066 17.0822 115.289Z" fill="#F5E9FE"/>
<path id="Vector_35" d="M20.1696 122.395C20.5577 121.576 18.7594 119.911 16.153 118.675C13.5466 117.439 11.1191 117.1 10.731 117.918C10.3429 118.736 12.1412 120.402 14.7476 121.638C17.354 122.874 19.7815 123.213 20.1696 122.395Z" fill="#272B30"/>
<path id="Vector_36" d="M22.085 128.772C22.085 129.795 24.7175 131.814 27.6387 131.814C30.56 131.814 33.2989 128.935 33.2989 127.913C33.2989 126.89 30.5599 128.111 27.6387 128.111C24.7175 128.111 22.085 127.75 22.085 128.772Z" fill="#FEF9EA"/>
<path id="Vector_37" d="M77.1153 125.505C82.8847 125.505 87.5617 120.828 87.5617 115.059C87.5617 109.289 82.8847 104.612 77.1153 104.612C71.3459 104.612 66.6689 109.289 66.6689 115.059C66.6689 120.828 71.3459 125.505 77.1153 125.505Z" fill="#272B30"/>
<path id="Vector_38" d="M75.5281 123.257H72.3545V128.943H75.5281V123.257Z" fill="#272B30"/>
<path id="Vector_39" d="M81.8757 123.257H78.7021V128.943H81.8757V123.257Z" fill="#272B30"/>
<path id="Vector_40" d="M74.9992 130.001C76.4598 130.001 77.6438 129.557 77.6438 129.009C77.6438 128.461 76.4598 128.017 74.9992 128.017C73.5385 128.017 72.3545 128.461 72.3545 129.009C72.3545 129.557 73.5385 130.001 74.9992 130.001Z" fill="#272B30"/>
<path id="Vector_41" d="M81.3468 129.869C82.8074 129.869 83.9915 129.425 83.9915 128.877C83.9915 128.329 82.8074 127.885 81.3468 127.885C79.8862 127.885 78.7021 128.329 78.7021 128.877C78.7021 129.425 79.8862 129.869 81.3468 129.869Z" fill="#272B30"/>
<path id="Vector_42" d="M66.9816 105.344C66.1381 101.566 68.8344 97.7492 73.004 96.8181C77.1736 95.8871 81.2375 98.1947 82.081 101.972C82.9245 105.75 80.1612 107.143 75.9916 108.074C71.822 109.005 67.8251 109.121 66.9816 105.344Z" fill="#B253F5"/>
<path id="Vector_43" d="M88.3724 110.494C90.6347 108.23 91.8925 105.818 91.1818 105.108C90.471 104.398 88.0608 105.658 85.7985 107.922C83.5361 110.186 82.2783 112.597 82.9891 113.307C83.6999 114.017 86.1101 112.758 88.3724 110.494Z" fill="#272B30"/>
<path id="Vector_44" d="M68.6945 114.035C69.4052 113.325 68.1474 110.914 65.8851 108.65C63.6228 106.386 61.2126 105.126 60.5018 105.836C59.791 106.546 61.0488 108.957 63.3112 111.222C65.5735 113.486 67.9837 114.745 68.6945 114.035Z" fill="#272B30"/>
<path id="Vector_45" d="M140.624 48.7594C140.277 38.0481 132.941 29.5932 124.238 29.875C104.869 30.4489 104.396 65.9681 123.096 68.5195L122.7 71.6668L128.476 71.4798L127.877 68.3647C135.4 66.702 140.939 58.4705 140.624 48.7594Z" fill="#9F28F3"/>
<path id="Vector_46" d="M114.606 54.6983L112.424 54.7689C111.569 50.7027 111.433 46.5179 112.024 42.4049L114.206 42.3342C113.4 46.6397 113.533 50.7611 114.606 54.6983Z" fill="white"/>
<path id="Vector_47" d="M128.759 68.3159L122.213 68.5278L122.26 69.9825L128.806 69.7705L128.759 68.3159Z" fill="#3F3D56"/>
<path id="Vector_48" d="M109.747 124.014L109.088 123.705L125.294 68.7483L125.953 69.0571L109.747 124.014Z" fill="#3F3D56"/>
<path id="Vector_49" d="M154.037 57.8172C157.995 47.8578 154.643 37.1773 146.551 33.9617C128.563 26.7564 113.951 59.1343 130.079 68.9382L128.459 71.6659L133.829 73.7998L134.524 70.7047C142.085 72.183 150.449 66.8465 154.037 57.8172Z" fill="#F2C52C"/>
<path id="Vector_50" d="M127.811 52.8767L125.782 52.0705C126.621 48.0009 128.167 44.1099 130.351 40.5745L132.379 41.3806C129.922 45.0066 128.399 48.8386 127.811 52.8767Z" fill="white"/>
<path id="Vector_51" d="M129.266 68.5933L128.729 69.9458L134.815 72.3643L135.352 71.0118L129.266 68.5933Z" fill="#3F3D56"/>
<path id="Vector_52" d="M109.619 122.567L108.986 122.207L131.612 70.5742L132.244 70.9339L109.619 122.567Z" fill="#3F3D56"/>
<path id="Vector_53" d="M31.0564 49.4516C26.7745 39.6272 16.8324 34.4833 8.8501 37.9623C-8.93478 45.6558 3.75614 78.8337 22.0749 74.2915L22.8705 77.3622L28.1678 75.0534L26.46 72.3803C32.8351 68.0545 34.9385 58.3585 31.0564 49.4516Z" fill="#F2C52C"/>
<path id="Vector_54" d="M9.0766 64.5878L7.07538 65.46C4.77747 61.998 3.10461 58.1598 2.13281 54.1198L4.13403 53.2476C4.97686 57.546 6.62438 61.326 9.0766 64.5878Z" fill="white"/>
<path id="Vector_55" d="M27.2615 72.0088L21.2578 74.6255L21.8393 75.9596L27.8429 73.343L27.2615 72.0088Z" fill="#3F3D56"/>
<path id="Vector_56" d="M41.1519 124.155C41.0582 124.178 40.9592 124.163 40.8766 124.113C40.7939 124.063 40.7344 123.983 40.7112 123.889L24.8945 73.7723L25.6008 73.5972L41.4174 123.714C41.4289 123.76 41.4312 123.808 41.4241 123.856C41.417 123.903 41.4006 123.948 41.3759 123.989C41.3513 124.03 41.3188 124.066 41.2804 124.094C41.2419 124.123 41.1983 124.143 41.1519 124.155Z" fill="#3F3D56"/>
<path id="Vector_57" d="M45.3791 140H7.29725C7.23292 140 7.17122 139.974 7.12573 139.929C7.08025 139.883 7.05469 139.822 7.05469 139.757C7.05469 139.693 7.08025 139.631 7.12573 139.586C7.17122 139.54 7.23292 139.515 7.29725 139.515H45.3791C45.4434 139.515 45.5051 139.54 45.5506 139.586C45.5961 139.631 45.6216 139.693 45.6216 139.757C45.6216 139.822 45.5961 139.883 45.5506 139.929C45.5051 139.974 45.4434 140 45.3791 140Z" fill="#CCCCCC"/>
<path id="Vector_58" d="M142.16 140H104.078C104.014 140 103.952 139.974 103.907 139.929C103.861 139.883 103.836 139.822 103.836 139.757C103.836 139.693 103.861 139.631 103.907 139.586C103.952 139.54 104.014 139.515 104.078 139.515H142.16C142.225 139.515 142.286 139.54 142.332 139.586C142.377 139.631 142.403 139.693 142.403 139.757C142.403 139.822 142.377 139.883 142.332 139.929C142.286 139.974 142.225 140 142.16 140Z" fill="#CCCCCC"/>
<path id="Vector_59" d="M96.8009 130.055H58.7191C58.6548 130.055 58.5931 130.029 58.5476 129.984C58.5021 129.938 58.4766 129.877 58.4766 129.812C58.4766 129.748 58.5021 129.686 58.5476 129.641C58.5931 129.595 58.6548 129.57 58.7191 129.57H96.8009C96.8653 129.57 96.927 129.595 96.9725 129.641C97.0179 129.686 97.0435 129.748 97.0435 129.812C97.0435 129.877 97.0179 129.938 96.9725 129.984C96.927 130.029 96.8653 130.055 96.8009 130.055Z" fill="#CCCCCC"/>
<path id="Vector_60" d="M76.6758 117.149C78.6476 117.149 80.2461 115.55 80.2461 113.578C80.2461 111.607 78.6476 110.008 76.6758 110.008C74.704 110.008 73.1055 111.607 73.1055 113.578C73.1055 115.55 74.704 117.149 76.6758 117.149Z" fill="#FEF9EA"/>
<path id="Vector_61" d="M76.6754 114.768C77.3327 114.768 77.8655 114.236 77.8655 113.578C77.8655 112.921 77.3327 112.388 76.6754 112.388C76.0182 112.388 75.4854 112.921 75.4854 113.578C75.4854 114.236 76.0182 114.768 76.6754 114.768Z" fill="#3F3D56"/>
<path id="Vector_62" d="M79.5101 120.181C79.6203 120.787 79.4854 121.412 79.135 121.918C78.7846 122.425 78.2474 122.771 77.6416 122.882C77.0357 122.992 76.4109 122.857 75.9045 122.507C75.3981 122.156 75.0517 121.619 74.9414 121.013L74.9406 121.009C74.7121 119.747 75.6877 119.3 76.9496 119.072C78.2114 118.843 79.2816 118.92 79.5101 120.181Z" fill="#FEF9EA"/>
</g>
<defs>
<clipPath id="clip0_476_1340">
<rect width="155.397" height="140" fill="white" transform="translate(0.301758)"/>
</clipPath>
</defs>
</svg>
