<svg width="40" height="41" viewBox="0 0 40 41" fill="none" xmlns="http://www.w3.org/2000/svg">
<g id="Party popper">
<g id="Group">
<path id="Vector" d="M8.24936 36.3217L28.1688 27.086L13.9356 12.8528L4.69989 32.7634C4.56744 33.0813 4.06416 34.3615 5.43274 35.58C6.9161 36.8956 7.9315 36.4542 8.24936 36.3217Z" fill="url(#paint0_linear_421_37201)"/>
<path id="Vector_2" d="M11.9402 17.1528L10.4568 20.3756C9.98003 21.5323 18.4387 30.0704 23.2155 29.3817L28.1689 27.0861C22.2972 29.7967 11.2162 18.7245 11.9402 17.1528Z" fill="url(#paint1_linear_421_37201)"/>
<path id="Vector_3" d="M8.93809 23.6514L8.59373 24.3842L7.42823 26.8918C7.4194 27.8807 12.5141 32.9665 15.7015 32.8606L19.7454 30.9887C15.366 31.748 8.4348 24.7197 8.93809 23.6514Z" fill="url(#paint2_linear_421_37201)"/>
<path id="Vector_4" d="M4.79688 32.5691C5.22069 33.4168 7.29564 35.4829 9.0174 35.9685L13.2909 33.9907L13.3174 33.973C10.6862 35.1827 6.23609 30.6973 6.15663 29.6554L4.79688 32.5691Z" fill="url(#paint3_linear_421_37201)"/>
<path id="Vector_5" opacity="0.75" d="M8.24936 36.3217L28.1688 27.086L13.9356 12.8528L4.69989 32.7634C4.56744 33.0813 4.06416 34.3615 5.43274 35.58C6.9161 36.8956 7.9315 36.4542 8.24936 36.3217Z" fill="url(#paint4_radial_421_37201)"/>
<path id="Vector_6" opacity="0.75" d="M8.24936 36.3217L28.1688 27.086L13.9356 12.8528L4.69989 32.7634C4.56744 33.0813 4.06416 34.3615 5.43274 35.58C6.9161 36.8956 7.9315 36.4542 8.24936 36.3217Z" fill="url(#paint5_radial_421_37201)"/>
<path id="Vector_7" d="M20.7431 12.9234C20.5047 13.409 20.0367 13.4797 19.6924 13.3737L20.2575 12.2524C20.2575 12.2524 20.8932 12.3936 20.9109 11.9786L20.9373 12.5614L20.7431 12.9234Z" fill="url(#paint6_linear_421_37201)"/>
<path id="Vector_8" d="M22.3236 6.7427C22.3236 6.7427 22.7298 6.55728 22.9859 6.02751C23.2419 5.49774 21.9793 4.5 21.9793 4.5L21.3877 5.53306C21.3877 5.53306 22.3854 6.18644 22.0764 6.40718C21.7585 6.62792 22.3236 6.7427 22.3236 6.7427Z" fill="url(#paint7_linear_421_37201)"/>
<path id="Vector_9" d="M32.6539 15.2367C32.8394 13.612 31.7445 13.0734 31.3472 13.1176C31.3472 13.1176 31.2765 12.5878 31.9829 12.42C32.4509 12.3141 33.6429 13.3736 33.3338 14.5744L32.6539 15.2367Z" fill="url(#paint8_linear_421_37201)"/>
<path id="Vector_10" d="M28.3367 26.9623C27.3478 27.9513 23.3569 25.5496 19.4101 21.6116C15.4721 17.6737 13.0705 13.6739 14.0594 12.685C15.0483 11.6961 19.0392 14.0977 22.986 18.0357C26.924 21.9825 29.3168 25.9734 28.3367 26.9623Z" fill="url(#paint9_linear_421_37201)"/>
<path id="Vector_11" d="M28.0012 26.3088C27.2507 27.0593 23.6659 24.693 20.0016 21.0199C16.3374 17.3468 13.9622 13.7709 14.7127 13.0203C15.4632 12.2698 19.048 14.6361 22.7123 18.3092C26.3766 21.9823 28.7517 25.5583 28.0012 26.3088Z" fill="url(#paint10_linear_421_37201)"/>
<path id="Vector_12" d="M22.9772 6.02759C22.9772 6.02759 22.5181 7.00767 22.4563 7.11362C22.2267 7.50212 21.5821 7.63457 20.4255 7.47564C19.2688 7.31671 18.9333 7.37851 18.8803 7.38734C18.8273 7.405 18.1475 6.85757 18.1475 6.85757L18.2093 6.3013C18.2093 6.3013 18.3682 6.08939 18.898 6.16003C19.8427 6.3013 22.624 6.76927 22.9772 6.02759Z" fill="url(#paint11_linear_421_37201)"/>
<path id="Vector_13" d="M25.2728 22.4239C26.1999 21.3644 27.0652 22.1944 27.6126 21.435L26.6767 20.4814C26.1292 21.232 25.3346 20.5256 24.3545 21.5587L25.2728 22.4239Z" fill="url(#paint12_linear_421_37201)"/>
<path id="Vector_14" d="M15.2158 9.56821C16.4961 10.3276 15.3571 11.3694 16.0811 11.961L17.0789 11.0692C16.3548 10.4777 17.3967 9.45343 16.1164 8.69409L15.2158 9.56821Z" fill="url(#paint13_linear_421_37201)"/>
<path id="Vector_15" d="M28.7691 13.4975C28.8044 13.4886 28.8221 13.2767 29.343 12.9059C29.864 12.535 31.0383 13.109 31.1884 13.1972C31.3473 13.2855 31.2149 14.7424 31.2149 14.7424C31.2149 14.7424 29.7492 13.1796 29.0163 13.5416C28.2835 13.8948 28.7691 13.4975 28.7691 13.4975Z" fill="url(#paint14_linear_421_37201)"/>
<path id="Vector_16" d="M28.9637 17.1264C28.9637 17.1264 28.9107 17.7003 28.6458 17.9652C28.169 18.4331 27.4097 17.7268 26.4473 17.9828C26.4473 17.9828 26.8887 16.8615 26.9329 16.7732C26.9329 16.7732 27.3214 16.5348 27.7187 16.7643C28.1249 16.9851 28.4781 17.0557 28.7253 16.9233C28.9725 16.7908 28.9637 17.1264 28.9637 17.1264Z" fill="url(#paint15_linear_421_37201)"/>
<path id="Vector_17" d="M31.5507 14.601C31.5507 14.601 30.6059 15.0336 30.4823 15.0954C30.3587 15.1572 30.0762 12.9587 30.756 12.738C31.4447 12.5172 31.9127 12.4378 31.9833 12.4289C32.054 12.4113 30.8002 12.5437 31.5507 14.601Z" fill="#FFBF00"/>
<path id="Vector_18" d="M28.6454 17.9562C29.0339 17.55 29.5637 16.9496 29.5372 16.7819C29.4136 15.7046 28.5395 13.3295 29.343 12.8969C29.343 12.8969 28.5925 13.4266 28.3629 13.5856C28.1333 13.7445 27.9655 14.1683 27.9832 14.8658C28.0274 16.0843 28.9986 17.5942 28.6454 17.9562Z" fill="#FFBF00"/>
<path id="Vector_19" d="M25.9615 9.24146C25.317 13.771 20.8228 18.0975 20.8228 18.0975L21.432 19.0246C21.432 19.0246 26.3236 13.9299 26.9504 9.38273L25.9615 9.24146Z" fill="url(#paint16_linear_421_37201)"/>
<path id="Vector_20" d="M17.6706 7.35194C17.5647 7.54619 17.8737 7.87288 18.6154 8.7735C19.3571 9.67411 21.2819 12.0581 20.7345 12.9234L21.3261 11.7049C21.3261 11.7049 21.3349 10.7337 20.7522 9.7889C19.8339 8.30553 18.0768 6.70739 18.2092 6.31006L17.6706 7.35194Z" fill="url(#paint17_linear_421_37201)"/>
<path id="Vector_21" d="M21.6086 21.1348C21.8085 21.1348 21.9706 20.9727 21.9706 20.7728C21.9706 20.5728 21.8085 20.4108 21.6086 20.4108C21.4087 20.4108 21.2466 20.5728 21.2466 20.7728C21.2466 20.9727 21.4087 21.1348 21.6086 21.1348Z" fill="url(#paint18_linear_421_37201)"/>
<path id="Vector_22" d="M26.6501 6.08938C26.85 6.08938 27.0121 5.9273 27.0121 5.72737C27.0121 5.52743 26.85 5.36536 26.6501 5.36536C26.4502 5.36536 26.2881 5.52743 26.2881 5.72737C26.2881 5.9273 26.4502 6.08938 26.6501 6.08938Z" fill="url(#paint19_linear_421_37201)"/>
<path id="Vector_23" d="M23.2507 11.343C23.4506 11.343 23.6127 11.181 23.6127 10.981C23.6127 10.7811 23.4506 10.619 23.2507 10.619C23.0507 10.619 22.8887 10.7811 22.8887 10.981C22.8887 11.181 23.0507 11.343 23.2507 11.343Z" fill="url(#paint20_linear_421_37201)"/>
<path id="Vector_24" d="M25.3962 17.9739C25.5961 17.9739 25.7582 17.8118 25.7582 17.6119C25.7582 17.412 25.5961 17.2499 25.3962 17.2499C25.1963 17.2499 25.0342 17.412 25.0342 17.6119C25.0342 17.8118 25.1963 17.9739 25.3962 17.9739Z" fill="url(#paint21_linear_421_37201)"/>
<path id="Vector_25" d="M34.7028 17.091C34.9028 17.091 35.0648 16.9289 35.0648 16.729C35.0648 16.529 34.9028 16.3669 34.7028 16.3669C34.5029 16.3669 34.3408 16.529 34.3408 16.729C34.3408 16.9289 34.5029 17.091 34.7028 17.091Z" fill="url(#paint22_linear_421_37201)"/>
<path id="Vector_26" d="M32.3981 24.7285C32.5981 24.7285 32.7602 24.5665 32.7602 24.3665C32.7602 24.1666 32.5981 24.0045 32.3981 24.0045C32.1982 24.0045 32.0361 24.1666 32.0361 24.3665C32.0361 24.5665 32.1982 24.7285 32.3981 24.7285Z" fill="url(#paint23_linear_421_37201)"/>
<path id="Vector_27" d="M30.8884 20.0664C31.0883 20.0664 31.2504 19.9044 31.2504 19.7044C31.2504 19.5045 31.0883 19.3424 30.8884 19.3424C30.6884 19.3424 30.5264 19.5045 30.5264 19.7044C30.5264 19.9044 30.6884 20.0664 30.8884 20.0664Z" fill="url(#paint24_linear_421_37201)"/>
<path id="Vector_28" d="M32.8747 10.2302C33.0746 10.2302 33.2367 10.0682 33.2367 9.86823C33.2367 9.6683 33.0746 9.50623 32.8747 9.50623C32.6748 9.50623 32.5127 9.6683 32.5127 9.86823C32.5127 10.0682 32.6748 10.2302 32.8747 10.2302Z" fill="url(#paint25_linear_421_37201)"/>
<path id="Vector_29" d="M28.8132 11.4134C29.0131 11.4134 29.1752 11.2513 29.1752 11.0513C29.1752 10.8514 29.0131 10.6893 28.8132 10.6893C28.6133 10.6893 28.4512 10.8514 28.4512 11.0513C28.4512 11.2513 28.6133 11.4134 28.8132 11.4134Z" fill="url(#paint26_linear_421_37201)"/>
<path id="Vector_30" d="M25.7144 25.7172C29.4051 22.6887 35.6564 22.0618 35.6564 22.0618L35.8595 20.6667C35.8595 20.6667 28.4604 21.5497 24.54 24.9491C24.9639 25.2405 25.3524 25.4965 25.7144 25.7172Z" fill="url(#paint27_linear_421_37201)"/>
<path id="Vector_31" d="M16.4521 16.9939C16.6994 17.3294 16.9731 17.665 17.2645 18.0181C18.0503 16.2875 17.8825 14.9278 17.8825 14.9278L16.9201 14.3274C17.0172 15.3958 16.6905 16.42 16.4521 16.9939Z" fill="url(#paint28_linear_421_37201)"/>
</g>
</g>
<defs>
<linearGradient id="paint0_linear_421_37201" x1="3.53097" y1="15.6344" x2="19.2896" y2="34.3092" gradientUnits="userSpaceOnUse">
<stop offset="0.2544" stop-color="#FBE07A"/>
<stop offset="1" stop-color="#FF40BF"/>
</linearGradient>
<linearGradient id="paint1_linear_421_37201" x1="12.0953" y1="17.0011" x2="25.1728" y2="30.0786" gradientUnits="userSpaceOnUse">
<stop offset="0.2544" stop-color="#9F00E8"/>
<stop offset="1" stop-color="#7000A3"/>
</linearGradient>
<linearGradient id="paint2_linear_421_37201" x1="8.47046" y1="24.1207" x2="17.5402" y2="33.1904" gradientUnits="userSpaceOnUse">
<stop offset="0.2544" stop-color="#9F00E8"/>
<stop offset="1" stop-color="#7000A3"/>
</linearGradient>
<linearGradient id="paint3_linear_421_37201" x1="5.72865" y1="30.0712" x2="11.4685" y2="35.811" gradientUnits="userSpaceOnUse">
<stop offset="0.2544" stop-color="#9F00E8"/>
<stop offset="1" stop-color="#7000A3"/>
</linearGradient>
<radialGradient id="paint4_radial_421_37201" cx="0" cy="0" r="1" gradientUnits="userSpaceOnUse" gradientTransform="translate(12.0699 21.883) rotate(119.598) scale(9.04666 2.76962)">
<stop stop-color="white" stop-opacity="0.5"/>
<stop offset="1" stop-color="white" stop-opacity="0"/>
</radialGradient>
<radialGradient id="paint5_radial_421_37201" cx="0" cy="0" r="1" gradientUnits="userSpaceOnUse" gradientTransform="translate(18.4272 29.9927) rotate(151.7) scale(14.3407 4.4727)">
<stop stop-color="#440063" stop-opacity="0.75"/>
<stop offset="1" stop-color="#420061" stop-opacity="0"/>
</radialGradient>
<linearGradient id="paint6_linear_421_37201" x1="20.81" y1="12.5936" x2="22.9773" y2="11.9014" gradientUnits="userSpaceOnUse">
<stop stop-color="#BD2719"/>
<stop offset="1" stop-color="#FF4E0D"/>
</linearGradient>
<linearGradient id="paint7_linear_421_37201" x1="22.8251" y1="7.21596" x2="21.8548" y2="4.80519" gradientUnits="userSpaceOnUse">
<stop stop-color="#BD2719"/>
<stop offset="1" stop-color="#FF4E0D"/>
</linearGradient>
<linearGradient id="paint8_linear_421_37201" x1="33.6176" y1="14.5788" x2="30.0032" y2="12.2629" gradientUnits="userSpaceOnUse">
<stop stop-color="#FFCB4B"/>
<stop offset="1" stop-color="#E81CA2"/>
</linearGradient>
<linearGradient id="paint9_linear_421_37201" x1="24.3576" y1="9.85559" x2="16.282" y2="35.3162" gradientUnits="userSpaceOnUse">
<stop offset="0.2544" stop-color="#FBE07A"/>
<stop offset="1" stop-color="#E81CA2"/>
</linearGradient>
<linearGradient id="paint10_linear_421_37201" x1="27.0088" y1="15.6999" x2="14.615" y2="24.3924" gradientUnits="userSpaceOnUse">
<stop stop-color="#FBE07A"/>
<stop offset="1" stop-color="white"/>
</linearGradient>
<linearGradient id="paint11_linear_421_37201" x1="17.0327" y1="6.86546" x2="21.0355" y2="6.80482" gradientUnits="userSpaceOnUse">
<stop stop-color="#BD2719"/>
<stop offset="1" stop-color="#FF4E0D"/>
</linearGradient>
<linearGradient id="paint12_linear_421_37201" x1="26.4552" y1="20.6692" x2="25.4926" y2="22.3963" gradientUnits="userSpaceOnUse">
<stop stop-color="#FF9214"/>
<stop offset="1" stop-color="#FF4E0D"/>
</linearGradient>
<linearGradient id="paint13_linear_421_37201" x1="15.2101" y1="7.3928" x2="16.6657" y2="11.5573" gradientUnits="userSpaceOnUse">
<stop stop-color="#80DAFE"/>
<stop offset="1" stop-color="#008EE6"/>
</linearGradient>
<linearGradient id="paint14_linear_421_37201" x1="30.0846" y1="15.4854" x2="29.7514" y2="11.2845" gradientUnits="userSpaceOnUse">
<stop stop-color="#FFCB4B"/>
<stop offset="1" stop-color="#E81CA2"/>
</linearGradient>
<linearGradient id="paint15_linear_421_37201" x1="26.5568" y1="17.256" x2="28.8779" y2="17.632" gradientUnits="userSpaceOnUse">
<stop stop-color="#FFCB4B"/>
<stop offset="1" stop-color="#E81CA2"/>
</linearGradient>
<linearGradient id="paint16_linear_421_37201" x1="24.9614" y1="9.40445" x2="21.5181" y2="23.5752" gradientUnits="userSpaceOnUse">
<stop offset="0.2544" stop-color="#E100FF"/>
<stop offset="1" stop-color="#7000A3"/>
</linearGradient>
<linearGradient id="paint17_linear_421_37201" x1="18.189" y1="7.08247" x2="20.7362" y2="11.3278" gradientUnits="userSpaceOnUse">
<stop stop-color="#FF9214"/>
<stop offset="1" stop-color="#FF4E0D"/>
</linearGradient>
<linearGradient id="paint18_linear_421_37201" x1="20.9162" y1="18.7352" x2="22.2909" y2="22.7784" gradientUnits="userSpaceOnUse">
<stop stop-color="#FFCB4B"/>
<stop offset="1" stop-color="#E81CA2"/>
</linearGradient>
<linearGradient id="paint19_linear_421_37201" x1="25.5456" y1="3.91679" x2="27.8099" y2="7.63656" gradientUnits="userSpaceOnUse">
<stop stop-color="#FBE07A"/>
<stop offset="1" stop-color="#E81CA2"/>
</linearGradient>
<linearGradient id="paint20_linear_421_37201" x1="23.1966" y1="10.7807" x2="23.7627" y2="12.9236" gradientUnits="userSpaceOnUse">
<stop stop-color="#80DAFE"/>
<stop offset="1" stop-color="#008EE6"/>
</linearGradient>
<linearGradient id="paint21_linear_421_37201" x1="25.1522" y1="16.9244" x2="25.4977" y2="17.9129" gradientUnits="userSpaceOnUse">
<stop stop-color="#80DAFE"/>
<stop offset="1" stop-color="#008EE6"/>
</linearGradient>
<linearGradient id="paint22_linear_421_37201" x1="34.9654" y1="15.8838" x2="34.3185" y2="17.9459" gradientUnits="userSpaceOnUse">
<stop stop-color="#FFCB4B"/>
<stop offset="1" stop-color="#E81CA2"/>
</linearGradient>
<linearGradient id="paint23_linear_421_37201" x1="32.2915" y1="22.0535" x2="32.4936" y2="26.4606" gradientUnits="userSpaceOnUse">
<stop stop-color="#FFCB4B"/>
<stop offset="1" stop-color="#E81CA2"/>
</linearGradient>
<linearGradient id="paint24_linear_421_37201" x1="30.6512" y1="19.0203" x2="30.9967" y2="20.0088" gradientUnits="userSpaceOnUse">
<stop offset="0.2544" stop-color="#9F00E8"/>
<stop offset="1" stop-color="#7000A3"/>
</linearGradient>
<linearGradient id="paint25_linear_421_37201" x1="33.5775" y1="8.66186" x2="32.2433" y2="10.9665" gradientUnits="userSpaceOnUse">
<stop stop-color="#80DAFE"/>
<stop offset="1" stop-color="#008EE6"/>
</linearGradient>
<linearGradient id="paint26_linear_421_37201" x1="28.7198" y1="10.5377" x2="29.1646" y2="13.0041" gradientUnits="userSpaceOnUse">
<stop stop-color="#FF9214"/>
<stop offset="1" stop-color="#FF4E0D"/>
</linearGradient>
<linearGradient id="paint27_linear_421_37201" x1="22.0379" y1="23.0091" x2="34.929" y2="23.2739" gradientUnits="userSpaceOnUse">
<stop stop-color="#80DAFE"/>
<stop offset="1" stop-color="#008EE6"/>
</linearGradient>
<linearGradient id="paint28_linear_421_37201" x1="14.9164" y1="21.5755" x2="18.0067" y2="13.8938" gradientUnits="userSpaceOnUse">
<stop stop-color="#FBE07A"/>
<stop offset="1" stop-color="#E81CA2"/>
</linearGradient>
</defs>
</svg>
